<?xml version="1.0" standalone="no"?>
<!DOCTYPE svg PUBLIC "-//W3C//DTD SVG 20010904//EN"
 "http://www.w3.org/TR/2001/REC-SVG-20010904/DTD/svg10.dtd">
<svg version="1.0" xmlns="http://www.w3.org/2000/svg"
 width="128.000000pt" height="118.000000pt" viewBox="0 0 128.000000 118.000000"
 preserveAspectRatio="xMidYMid meet">

<g transform="translate(0.000000,118.000000) scale(0.100000,-0.100000)"
fill="#000000" stroke="none">
<path d="M68 997 l-46 -81 71 -49 c130 -89 215 -184 291 -327 44 -84 112 -267
136 -368 l12 -52 98 0 98 0 7 32 c14 65 78 253 111 326 75 164 179 283 319
365 39 22 72 42 74 43 4 4 -49 146 -59 157 -17 19 -142 -52 -243 -137 -117
-98 -235 -280 -292 -451 -5 -15 -15 1 -44 71 -53 129 -130 250 -221 348 -55
60 -179 160 -229 185 l-36 19 -47 -81z"/>
</g>
</svg>
