<?xml version="1.0" encoding="utf-8"?>
<!-- Generator: Adobe Illustrator 23.0.5, SVG Export Plug-In . SVG Version: 6.00 Build 0)  -->
<svg version="1.1" id="Capa_1" xmlns="http://www.w3.org/2000/svg" xmlns:xlink="http://www.w3.org/1999/xlink" x="0px" y="0px"
	 viewBox="0 0 885.6 411.4" enable-background="new 0 0 885.6 411.4" xml:space="preserve">
<g>
	<rect x="-515.7" y="336.3" fill="#0A7EFF" width="150.6" height="150.6"/>
	<path fill="#FF2A6A" d="M-435.2,479.4V389h17.2v32.9c4.9-6.9,11.5-10.4,19.7-10.4c4.3,0,8.1,0.8,11.5,2.5c3.4,1.7,6.2,4,8.5,7.1
		c2.3,3.1,4.1,6.7,5.3,10.8s1.8,8.8,1.8,13.8c0,5.6-0.7,10.5-2.2,14.9c-1.4,4.4-3.4,8.1-5.9,11.2c-2.5,3.1-5.5,5.4-9.1,7
		c-3.5,1.6-7.4,2.4-11.5,2.4c-8.3,0-14.4-3.3-18.4-9.8l-0.1,8.1H-435.2z M-403.9,466.9c4.4,0,8-1.9,10.8-5.6
		c2.8-3.7,4.2-8.5,4.2-14.5c0-13.6-5-20.5-15.1-20.5c-9.8,0-14.7,7.2-14.7,21.5c0,5.7,1.4,10.2,4.2,13.7
		C-411.6,465.2-408.1,466.9-403.9,466.9z"/>
	<path fill="#FF2A6A" d="M-360.1,479.4V389h17.5v90.5H-360.1z"/>
	<path fill="#FF2A6A" d="M-297.9,481.2c-5.4,0-10.2-0.9-14.4-2.6c-4.2-1.7-7.8-4.1-10.7-7.1c-2.9-3.1-5.1-6.7-6.7-11
		c-1.5-4.3-2.3-9-2.3-14.1c0-5.2,0.8-10,2.4-14.3c1.6-4.3,3.8-8,6.8-11c3-3.1,6.5-5.4,10.7-7.1c4.2-1.7,8.9-2.5,14.2-2.5
		c5.2,0,9.9,0.8,14,2.5c4.1,1.7,7.7,4,10.6,7c2.9,3,5.2,6.7,6.7,11c1.6,4.3,2.4,9.1,2.4,14.4c0,5.3-0.8,10.1-2.4,14.3
		c-1.6,4.3-3.8,7.9-6.7,11c-2.9,3.1-6.5,5.4-10.6,7.1C-288.1,480.4-292.8,481.2-297.9,481.2z M-297.9,466.5c10.7,0,16-6.7,16-20.2
		c0-13.4-5.3-20.1-16-20.1c-10.7,0-16,6.7-16,20.1C-313.9,459.8-308.6,466.5-297.9,466.5z"/>
	<path fill="#FF2A6A" d="M-252.9,405.2V389h17.5v16.3H-252.9z M-252.9,479.4v-66.2h17.5v66.2H-252.9z"/>
	<path fill="#FF2A6A" d="M-180.4,479.4v-40.1c0-5.1-0.9-8.6-2.6-10.4c-1.7-1.8-4.6-2.7-8.8-2.7c-9.1,0-13.6,5.1-13.6,15.2v38h-17.5
		v-66.2h16.7v9.7c2.1-3.8,4.8-6.6,8.2-8.5c3.4-1.9,7.8-2.9,13.2-2.9c3.1,0,6.1,0.5,8.8,1.4c2.7,0.9,5,2.4,6.9,4.2
		c1.9,1.9,3.5,4.2,4.6,6.9c1.1,2.7,1.7,5.9,1.7,9.5v45.9H-180.4z"/>
	<path fill="#FF2A6A" d="M-109.7,479.4l-11.6-19.9l-11.3,19.9h-21l22.2-33.8l-21.5-32.4h21.1l11.2,19.3l11.3-19.3h20.3l-21.9,32.4
		l22.6,33.8H-109.7z"/>
</g>
<g>
	<rect x="61.8" y="136" fill="#FE6196" width="174.6" height="174.6"/>
	<g>
		<g>
			<rect x="87.6" y="116.6" fill="#FF2B6B" width="50.2" height="50.2"/>
		</g>
		<g>
			<path fill="#FF2C6A" d="M141.8,170.8H83.5v-58.2h58.2V170.8z M91.6,162.7h42.1v-42.1H91.6V162.7z"/>
		</g>
	</g>
	<g>
		<g>
			<rect x="160.3" y="116.6" fill="#FF2B6B" width="50.2" height="50.2"/>
		</g>
		<g>
			<path fill="#FF2C6A" d="M214.5,170.8h-58.2v-58.2h58.2V170.8z M164.3,162.7h42.1v-42.1h-42.1V162.7z"/>
		</g>
	</g>
</g>
<g>
	<path fill="#0A7EFF" d="M252.2,307.7v-149h28.4v54.1c8.1-11.4,18.9-17.1,32.4-17.1c7.1,0,13.4,1.4,19,4.1
		c5.5,2.7,10.2,6.6,14.1,11.6c3.8,5,6.8,11,8.8,17.9c2,6.9,3,14.5,3,22.7c0,9.2-1.2,17.4-3.5,24.6c-2.4,7.2-5.6,13.4-9.8,18.4
		c-4.1,5-9.1,8.9-15,11.5c-5.8,2.7-12.2,4-19,4c-13.6,0-23.7-5.4-30.4-16.2l-0.2,13.3H252.2z M303.9,287.1c7.2,0,13.2-3.1,17.7-9.2
		c4.6-6.1,6.9-14.1,6.9-23.8c0-22.5-8.3-33.7-24.8-33.7c-16.1,0-24.2,11.8-24.2,35.5c0,9.3,2.3,16.9,7,22.6
		C291.2,284.2,297,287.1,303.9,287.1z"/>
	<path fill="#0A7EFF" d="M376,307.7v-149h28.8v149H376z"/>
	<path fill="#0A7EFF" d="M478.5,310.6c-8.9,0-16.8-1.4-23.7-4.2c-7-2.8-12.8-6.7-17.6-11.8c-4.8-5-8.5-11.1-11-18.2
		c-2.5-7.1-3.8-14.9-3.8-23.3c0-8.6,1.3-16.4,3.9-23.5c2.6-7.1,6.3-13.2,11.2-18.2c4.9-5,10.8-8.9,17.6-11.6
		c6.9-2.7,14.7-4.1,23.4-4.1c8.6,0,16.3,1.4,23.1,4.1c6.8,2.7,12.6,6.6,17.4,11.5c4.8,5,8.5,11,11.1,18.1c2.6,7.1,3.9,15,3.9,23.7
		c0,8.7-1.3,16.6-3.9,23.6c-2.6,7-6.3,13.1-11.1,18.1c-4.8,5-10.6,8.9-17.5,11.6C494.6,309.2,486.9,310.6,478.5,310.6z M478.5,286.4
		c17.6,0,26.4-11.1,26.4-33.3c0-22-8.8-33-26.4-33c-17.6,0-26.4,11-26.4,33C452.1,275.3,460.9,286.4,478.5,286.4z"/>
	<path fill="#0A7EFF" d="M552.6,185.5v-26.8h28.8v26.8H552.6z M552.6,307.7V198.6h28.8v109.1H552.6z"/>
	<path fill="#0A7EFF" d="M672.1,307.7v-66.1c0-8.4-1.4-14.1-4.2-17.1c-2.8-3-7.6-4.4-14.4-4.4c-14.9,0-22.4,8.4-22.4,25.1v62.5
		h-28.8V198.6h27.5v16c3.4-6.2,7.9-10.9,13.5-14.1c5.6-3.2,12.9-4.8,21.7-4.8c5.2,0,10,0.8,14.4,2.3c4.4,1.6,8.2,3.9,11.4,7
		c3.2,3.1,5.7,6.9,7.5,11.4c1.8,4.5,2.8,9.7,2.8,15.6v75.6H672.1z"/>
	<path fill="#0A7EFF" d="M788.5,307.7l-19.1-32.8l-18.6,32.8h-34.6l36.6-55.7l-35.5-53.5h34.8l18.4,31.7l18.6-31.7h33.5l-36.2,53.5
		l37.3,55.7H788.5z"/>
</g>
<text transform="matrix(1 0 0 1 743.125 582.2402)" fill="#0A7EFF" font-family="'MyriadPro-Regular'" font-size="41.9267px">0A7EFF</text>
<text transform="matrix(1 0 0 1 743.125 643.8398)" fill="#FF2B6B" font-family="'MyriadPro-Regular'" font-size="45.7518px">FF2B6B</text>
<g>
	<text transform="matrix(1 0 0 1 776 724.5977)" fill="#FE6196" font-family="'MyriadPro-Regular'" font-size="35.253px">FE6196</text>
</g>
</svg>
